<svg width="200" height="200" xmlns="http://www.w3.org/2000/svg">
    <style>
    #favicon-logo {
      fill: #000;
    }
    @media (prefers-color-scheme: dark) {
      #favicon-logo {
        fill: #FFF !important;
      }
    }
  </style>
  <g id="favicon-logo" fill="#000" fill-rule="nonzero">
    <path d="M159.458 95.914s-7.2 24.152-16.545 29.755l6.812.193s-7.49 21.554-25.295 25.033c-13.385 2.613-14.786-17.498-14.786-17.498l-.388-63.775 24.377-2.982c1.536 1.813 3.801 2.982 6.365 2.982 4.62 0 8.362-3.723 8.362-8.304 0-4.59-3.741-8.32-8.362-8.32-3.056 0-5.701 1.65-7.162 4.078l-25.726-2.909-.775-6.499c7.87-2.48 13.623-9.711 13.623-18.334 0-10.66-8.734-19.334-19.458-19.334-10.732 0-19.459 8.675-19.459 19.334 0 8.623 5.754 15.855 13.624 18.334l-.775 6.5-25.726 2.908c-1.46-2.428-4.106-4.078-7.162-4.078-4.62 0-8.362 3.723-8.362 8.32 0 4.581 3.741 8.304 8.362 8.304 2.564 0 4.83-1.169 6.364-2.982l24.377 2.982-.387 63.775S89.955 153.5 76.57 150.895c-17.805-3.479-25.295-25.033-25.295-25.033l6.812-.193c-9.338-5.61-16.545-29.755-16.545-29.755-11.485 16.425-1.558 39.8-1.558 39.8l2.728-3.279c5.053 19.135 27.441 36.329 38.53 41.17C92.332 178.432 100.5 191 100.5 191s8.168-12.568 19.265-17.395c11.09-4.84 33.47-22.035 38.53-41.17l2.728 3.28c-.008 0 9.92-23.376-1.565-39.801ZM91 30.004C91 24.486 95.485 20 101 20s10 4.494 10 10.004C111 35.52 106.515 40 101 40s-10-4.479-10-9.996Z"/>
    <path d="M76.837 50c.606 0 .91-.32.91-.962v-5.714c0-.37.078-.602.234-.7.156-.097.362-.145.616-.145h2.464c.333 0 .572-.132.719-.394.147-.262.22-.568.22-.918v-6.939c0-.272-.093-.476-.279-.612-.185-.136-.425-.204-.718-.204h-2.406c-.332 0-.557-.082-.675-.248-.117-.165-.176-.48-.176-.947V7.962c0-.291-.083-.525-.249-.7-.166-.175-.386-.262-.66-.262H61.758c-.293 0-.537.058-.733.175-.196.117-.372.32-.528.612l-12.38 26.325c-.078.136-.117.36-.117.67v.292c0 .039.02.136.059.291l1.32 6.443c.058.447.342.67.85.67h15.196c.372 0 .607.093.704.278.098.184.147.432.147.743v5.539c0 .641.342.962 1.027.962h9.534ZM65.44 34H59l6.941-16H66v15.337c0 .211-.03.375-.088.49-.06.115-.216.173-.47.173ZM66.333 116c2.495 0 4.762-.284 6.803-.852 2.04-.568 3.786-1.42 5.236-2.555a11.57 11.57 0 0 0 3.365-4.215c.793-1.675 1.19-3.628 1.19-5.86 0-1.489-.203-2.874-.61-4.157a11.087 11.087 0 0 0-1.755-3.422 10.228 10.228 0 0 0-2.756-2.496c-1.073-.666-2.277-1.136-3.611-1.41l-.493-.118.493-.117a7.758 7.758 0 0 0 2.524-1.307 8.245 8.245 0 0 0 1.856-2.042 9.665 9.665 0 0 0 1.16-2.614 11.2 11.2 0 0 0 .407-3.055c0-2.017-.358-3.76-1.074-5.228-.715-1.47-1.827-2.673-3.336-3.613a10.272 10.272 0 0 0-1.697-.867c-.61-.245-1.32-.445-2.132-.602a24.524 24.524 0 0 0-2.814-.353A51.764 51.764 0 0 0 65.347 71h-14.39a.92.92 0 0 0-.681.279.944.944 0 0 0-.276.69v43.062c0 .274.092.504.276.69a.92.92 0 0 0 .681.279h15.376Zm-1.738-28.537h-2.073c-.3 0-.449-.142-.449-.426v-6.738c0-.346.15-.519.449-.519h2.13c1.42 0 2.442.356 3.068 1.068.626.71.939 1.626.939 2.743 0 1.159-.341 2.094-1.023 2.805-.682.712-1.696 1.067-3.04 1.067Zm.687 18.659H62.54c-.311 0-.467-.148-.467-.444v-8.96c0-.316.156-.474.467-.474h2.509c1.07 0 1.974.128 2.713.384.739.257 1.337.621 1.794 1.095.457.473.787 1.03.991 1.67.205.641.307 1.346.307 2.115 0 1.479-.457 2.618-1.371 3.416-.914.799-2.315 1.198-4.201 1.198ZM144.055 113c.402 0 .735-.133 1-.398s.398-.58.398-.945V80.102c0-.22.119-.33.356-.33h9.705c.402 0 .736-.136 1.001-.41.265-.275.398-.594.398-.96v-6.059c0-.365-.133-.68-.398-.945-.265-.265-.599-.398-1-.398h-31.117a1.37 1.37 0 0 0-.987.398 1.27 1.27 0 0 0-.411.945v6.06c0 .365.137.684.411.959.274.274.603.41.987.41h9.733c.219 0 .329.11.329.33v31.555c0 .365.132.68.397.945.265.265.599.398 1 .398h8.198Z"/>
  </g>
</svg>