<?xml version="1.0" encoding="UTF-8"?>
<svg width="200px" height="200px" viewBox="0 0 200 200" version="1.1" xmlns="http://www.w3.org/2000/svg" xmlns:xlink="http://www.w3.org/1999/xlink">
    <!-- Generator: Sketch 63.1 (92452) - https://sketch.com -->
    <title>Artboard</title>
    <desc>Created with Sketch.</desc>
    <g id="Artboard" stroke="none" stroke-width="1" fill="none" fill-rule="evenodd">
        <g id="Group" transform="translate(36.000000, 7.000000)" fill="#000000" fill-rule="nonzero">
            <path d="M123.457866,88.9138252 C123.457866,88.9138252 116.258674,113.066148 106.912927,118.66935 L113.724629,118.861796 C113.724629,118.861796 106.234676,140.416218 88.4299636,143.895244 C75.045045,146.508114 73.6438984,126.397032 73.6438984,126.397032 L73.25637,62.6224701 L97.6333449,59.6395275 C99.1685963,61.4529981 101.434222,62.6224701 103.99784,62.6224701 C108.618533,62.6224701 112.359693,58.8993817 112.359693,54.3175273 C112.359693,49.7282828 108.618533,45.9978044 103.99784,45.9978044 C100.94218,45.9978044 98.2965237,47.6484279 96.8358513,50.0761854 L71.1100057,47.1671437 L70.3349297,40.6682247 C78.2049321,38.1885661 83.9583332,30.9568915 83.9583332,22.3336065 C83.9583332,11.6748261 75.2238706,3 64.4998713,3 C53.7680498,3 45.0414095,11.6750156 45.0414095,22.3336065 C45.0414095,30.9568915 50.7948106,38.1885661 58.664813,40.6682247 L57.889737,47.1671437 L32.1638914,50.0761854 C30.7031808,47.6484469 28.0575626,45.9978044 25.001903,45.9978044 C20.3812099,45.9978044 16.6400492,49.7208927 16.6400492,54.3175273 C16.6400492,58.8993817 20.3812099,62.6224701 25.001903,62.6224701 C27.5657113,62.6224701 29.8311273,61.4529602 31.3663978,59.6395275 L55.7433727,62.6224701 L55.3558443,126.397032 C55.3558443,126.397032 53.9547358,146.499966 40.569779,143.895244 C22.7654486,140.416408 15.2751142,118.861796 15.2751142,118.861796 L22.0868159,118.66935 C12.7487003,113.058758 5.54187671,88.9138252 5.54187671,88.9138252 C-5.94260325,105.338769 3.9842649,128.714185 3.9842649,128.714185 L6.71196005,125.43507 C11.7647878,144.569713 34.1529892,161.763984 45.2415842,166.605439 C56.3311331,171.431545 64.4997187,184 64.4997187,184 C64.4997187,184 72.6677319,171.431545 83.7654847,166.605439 C94.8550337,161.764552 117.235413,144.569713 122.295109,125.43507 L125.022804,128.714185 C125.015352,128.714185 134.942251,105.338769 123.457752,88.9138252 L123.457866,88.9138252 Z M55,23.0036773 C55,17.4861628 59.4845137,13 65,13 C70.5154863,13 75,17.4935175 75,23.0036773 C75,28.5211918 70.5154863,33 65,33 C59.4845137,33 55,28.5211918 55,23.0036773 L55,23.0036773 Z" id="Shape"></path>
            <path d="M40.8369284,43 C41.4431982,43 41.746333,42.679322 41.746333,42.0379661 L41.746333,42.0379661 L41.746333,36.3240678 C41.746333,35.9548023 41.8245614,35.7215819 41.9810181,35.6244068 C42.1374748,35.5272316 42.3428243,35.4786441 42.5970664,35.4786441 L42.5970664,35.4786441 L45.0612597,35.4786441 C45.3937302,35.4786441 45.6333046,35.3474576 45.7799827,35.0850847 C45.9266609,34.8227119 46,34.5166102 46,34.1667797 L46,34.1667797 L46,27.2284746 C46,26.9563842 45.9071038,26.7523164 45.7213115,26.6162712 C45.5355191,26.480226 45.2959448,26.4122034 45.0025884,26.4122034 L45.0025884,26.4122034 L42.5970664,26.4122034 C42.2645959,26.4122034 42.0396894,26.3296045 41.9223469,26.1644068 C41.8050043,25.999209 41.746333,25.6833898 41.746333,25.2169492 L41.746333,25.2169492 L41.746333,0.962033898 C41.746333,0.670508475 41.6632154,0.437288136 41.4969802,0.262372881 C41.3307449,0.0874576271 41.1107276,0 40.8369284,0 L40.8369284,0 L25.7584124,0 C25.4650561,0 25.2205925,0.0583050847 25.0250216,0.174915254 C24.8294507,0.291525424 24.6534369,0.49559322 24.4969802,0.787118644 L24.4969802,0.787118644 L12.1173425,27.1118644 C12.0391142,27.2479096 12,27.4714124 12,27.7823729 L12,27.7823729 L12,28.0738983 C12,28.1127684 12.0195571,28.2099435 12.0586713,28.3654237 L12.0586713,28.3654237 L13.3787748,34.8081356 C13.4374461,35.2551412 13.7210239,35.4786441 14.2295082,35.4786441 L14.2295082,35.4786441 L29.4253667,35.4786441 C29.7969514,35.4786441 30.0316365,35.5709605 30.1294219,35.7555932 C30.2272074,35.940226 30.2761001,36.1880226 30.2761001,36.4989831 L30.2761001,36.4989831 L30.2761001,42.0379661 C30.2761001,42.679322 30.6183492,43 31.3028473,43 L31.3028473,43 L40.8369284,43 Z M29.4411765,27 L23,27 L29.9411765,11 L30,11 L30,26.3369369 C30,26.5483483 29.9705882,26.7117117 29.9117647,26.827027 C29.8529412,26.9423423 29.6960784,27 29.4411765,27 L29.4411765,27 Z" id="4"></path>
            <path d="M30.3328677,109 C32.827764,109 35.0954121,108.716057 37.1358118,108.148172 C39.1762115,107.580287 40.9216719,106.72846 42.372193,105.592689 C43.8227141,104.456919 44.9444504,103.051893 45.737402,101.377611 C46.5303535,99.703329 46.9268293,97.75 46.9268293,95.517624 C46.9268293,94.0293734 46.7237563,92.6439295 46.3176104,91.3612924 C45.9114645,90.0786554 45.326421,88.9379896 44.5624799,87.939295 C43.7985387,86.9406005 42.8798754,86.1083551 41.8064897,85.4425587 C40.7331041,84.7767624 39.5291716,84.3067885 38.1946922,84.0326371 L38.1946922,84.0326371 L37.701515,83.9151436 L38.1946922,83.7976501 C39.142366,83.5039164 39.9836682,83.0682115 40.7185989,82.4905352 C41.4535296,81.912859 42.0724186,81.232376 42.5752659,80.4490862 C43.0781132,79.6657963 43.4649189,78.7943864 43.7356828,77.8348564 C44.0064468,76.8753264 44.1418287,75.8570496 44.1418287,74.7800261 C44.1418287,72.7630548 43.7840335,71.020235 43.0684431,69.5515666 C42.3528527,68.0828982 41.2407865,66.8785901 39.7322445,65.9386423 C39.2100569,65.6057441 38.6443537,65.316906 38.0351348,65.0721279 C37.425916,64.8273499 36.7151606,64.6266319 35.9028688,64.4699739 C35.090577,64.3133159 34.1525733,64.1958225 33.0888578,64.1174935 C32.0251424,64.0391645 30.7776942,64 29.3465134,64 L29.3465134,64 L14.9573439,64 C14.68658,64 14.4593317,64.0930157 14.275599,64.279047 C14.0918663,64.4650783 14,64.6951697 14,64.9693211 L14,64.9693211 L14,108.030679 C14,108.30483 14.0918663,108.534922 14.275599,108.720953 C14.4593317,108.906984 14.68658,109 14.9573439,109 L14.9573439,109 L30.3328677,109 Z M28.5952257,80.4634146 L26.5215361,80.4634146 C26.2226258,80.4634146 26.0731707,80.3211382 26.0731707,80.0365854 L26.0731707,80.0365854 L26.0731707,73.2987805 C26.0731707,72.953252 26.2226258,72.7804878 26.5215361,72.7804878 L26.5215361,72.7804878 L28.6512714,72.7804878 C30.071095,72.7804878 31.0939284,73.1361789 31.7197717,73.847561 C32.3456149,74.5589431 32.6585366,75.4735772 32.6585366,76.5914634 C32.6585366,77.75 32.3175921,78.6849593 31.6357032,79.3963415 C30.9538142,80.1077236 29.9403217,80.4634146 28.5952257,80.4634146 L28.5952257,80.4634146 Z M29.2819869,99.1219512 L26.5399076,99.1219512 C26.2287497,99.1219512 26.0731707,98.9740762 26.0731707,98.6783263 L26.0731707,98.6783263 L26.0731707,89.7171024 C26.0731707,89.4016358 26.2287497,89.2439024 26.5399076,89.2439024 L26.5399076,89.2439024 L29.0486184,89.2439024 C30.1182238,89.2439024 31.0225265,89.3720608 31.7615266,89.6283774 C32.5005267,89.884694 33.0985333,90.2494523 33.5555466,90.7226523 C34.0125598,91.1958522 34.3431651,91.752848 34.5473625,92.3936396 C34.7515598,93.0344311 34.8536585,93.7393019 34.8536585,94.5082518 C34.8536585,95.9870016 34.3966453,97.125639 33.4826189,97.9241639 C32.5685925,98.7226888 31.1683818,99.1219512 29.2819869,99.1219512 L29.2819869,99.1219512 Z" id="B"></path>
            <path d="M108.05483,106 C108.456919,106 108.79047,105.867493 109.055483,105.60248 C109.320496,105.337467 109.453003,105.022193 109.453003,104.656658 L109.453003,104.656658 L109.453003,73.1018277 C109.453003,72.8825065 109.571802,72.772846 109.809399,72.772846 L109.809399,72.772846 L119.51436,72.772846 C119.916449,72.772846 120.25,72.6357702 120.515013,72.3616188 C120.780026,72.0874674 120.912533,71.767624 120.912533,71.4020888 L120.912533,71.4020888 L120.912533,65.343342 C120.912533,64.9778068 120.780026,64.6625326 120.515013,64.3975196 C120.25,64.1325065 119.916449,64 119.51436,64 L119.51436,64 L88.3981723,64 C88.0143603,64 87.6853786,64.1325065 87.4112272,64.3975196 C87.1370757,64.6625326 87,64.9778068 87,65.343342 L87,65.343342 L87,71.4020888 C87,71.767624 87.1370757,72.0874674 87.4112272,72.3616188 C87.6853786,72.6357702 88.0143603,72.772846 88.3981723,72.772846 L88.3981723,72.772846 L98.1305483,72.772846 C98.3498695,72.772846 98.45953,72.8825065 98.45953,73.1018277 L98.45953,73.1018277 L98.45953,104.656658 C98.45953,105.022193 98.5920366,105.337467 98.8570496,105.60248 C99.1220627,105.867493 99.4556136,106 99.8577023,106 L99.8577023,106 L108.05483,106 Z" id="T"></path>
        </g>
    </g>
</svg>